<svg xmlns="http://www.w3.org/2000/svg" viewBox="0 0 512 512" width="100" height="100">
  <!-- Fundo do cérebro -->
  <path d="M256 32C132.3 32 32 132.3 32 256s100.3 224 224 224 224-100.3 224-224S379.7 32 256 32z" fill="none" stroke="#6c5ce7" stroke-width="8"/>
  
  <!-- Hemisférios do cérebro -->
  <path d="M256 96c-35.3 0-64 28.7-64 64v32c0 35.3 28.7 64 64 64s64-28.7 64-64v-32c0-35.3-28.7-64-64-64z" fill="none" stroke="#6c5ce7" stroke-width="6"/>
  <path d="M256 96c35.3 0 64 28.7 64 64v32c0 35.3-28.7 64-64 64s-64-28.7-64-64v-32c0-35.3 28.7-64 64-64z" fill="none" stroke="#6c5ce7" stroke-width="6"/>
  
  <!-- Circuitos -->
  <path d="M128 256h32m32 0h32m32 0h32m32 0h32m32 0h32" stroke="#00cec9" stroke-width="4" stroke-linecap="round"/>
  <path d="M256 128v32m0 32v32m0 32v32m0 32v32" stroke="#00cec9" stroke-width="4" stroke-linecap="round"/>
  
  <!-- Nós de circuito -->
  <circle cx="160" cy="256" r="8" fill="#00cec9"/>
  <circle cx="224" cy="256" r="8" fill="#00cec9"/>
  <circle cx="288" cy="256" r="8" fill="#00cec9"/>
  <circle cx="352" cy="256" r="8" fill="#00cec9"/>
  
  <circle cx="256" cy="160" r="8" fill="#00cec9"/>
  <circle cx="256" cy="224" r="8" fill="#00cec9"/>
  <circle cx="256" cy="288" r="8" fill="#00cec9"/>
  <circle cx="256" cy="352" r="8" fill="#00cec9"/>
  
  <!-- Pulsos de energia -->
  <circle cx="192" cy="256" r="4" fill="#fd79a8">
    <animate attributeName="opacity" values="0;1;0" dur="2s" repeatCount="indefinite"/>
  </circle>
  <circle cx="256" cy="192" r="4" fill="#fd79a8">
    <animate attributeName="opacity" values="0;1;0" dur="1.5s" repeatCount="indefinite"/>
  </circle>
  <circle cx="320" cy="256" r="4" fill="#fd79a8">
    <animate attributeName="opacity" values="0;1;0" dur="2.5s" repeatCount="indefinite"/>
  </circle>
  <circle cx="256" cy="320" r="4" fill="#fd79a8">
    <animate attributeName="opacity" values="0;1;0" dur="1.8s" repeatCount="indefinite"/>
  </circle>
</svg>