<svg xmlns="http://www.w3.org/2000/svg" viewBox="0 0 512 512" width="100" height="100">
  <!-- Balança da justiça -->
  <line x1="256" y1="100" x2="256" y2="400" stroke="#6c5ce7" stroke-width="8" stroke-linecap="round"/>
  
  <!-- Base da balança -->
  <path d="M206 400 H306" stroke="#6c5ce7" stroke-width="8" stroke-linecap="round"/>
  
  <!-- Braço da balança -->
  <line x1="156" y1="180" x2="356" y2="180" stroke="#6c5ce7" stroke-width="6" stroke-linecap="round">
    <animate attributeName="transform" attributeType="XML" type="rotate" from="-5 256 180" to="5 256 180" dur="3s" repeatCount="indefinite" additive="sum" />
  </line>
  
  <!-- Fios da balança -->
  <line x1="156" y1="180" x2="156" y2="240" stroke="#6c5ce7" stroke-width="4"/>
  <line x1="356" y1="180" x2="356" y2="240" stroke="#6c5ce7" stroke-width="4"/>
  
  <!-- Pratos da balança -->
  <ellipse cx="156" cy="260" rx="40" ry="20" fill="none" stroke="#6c5ce7" stroke-width="4"/>
  <ellipse cx="356" cy="260" rx="40" ry="20" fill="none" stroke="#6c5ce7" stroke-width="4"/>
  
  <!-- Símbolos nos pratos -->
  <!-- Prato esquerdo: Símbolo de código/tecnologia -->
  <rect x="136" y="250" width="40" height="10" fill="#00cec9" rx="2"/>
  <rect x="136" y="240" width="10" height="10" fill="#00cec9" rx="2"/>
  <rect x="156" y="240" width="10" height="10" fill="#00cec9" rx="2"/>
  
  <!-- Prato direito: Símbolo humano -->
  <circle cx="356" cy="245" r="10" fill="#fd79a8"/>
  <path d="M356 255 v15" stroke="#fd79a8" stroke-width="4" stroke-linecap="round"/>
  <path d="M346 265 h20" stroke="#fd79a8" stroke-width="4" stroke-linecap="round"/>
  
  <!-- Círculo central representando equilíbrio -->
  <circle cx="256" cy="140" r="20" fill="none" stroke="#6c5ce7" stroke-width="4"/>
  <path d="M246 140 h20" stroke="#6c5ce7" stroke-width="4" stroke-linecap="round"/>
  <path d="M256 130 v20" stroke="#6c5ce7" stroke-width="4" stroke-linecap="round"/>
  
  <!-- Pulsos de energia representando decisões éticas -->
  <circle cx="206" cy="180" r="5" fill="#00cec9" opacity="0.7">
    <animate attributeName="cx" values="206;306" dur="4s" repeatCount="indefinite"/>
    <animate attributeName="opacity" values="0.7;1;0.7" dur="4s" repeatCount="indefinite"/>
  </circle>
  
  <circle cx="306" cy="180" r="5" fill="#fd79a8" opacity="0.7">
    <animate attributeName="cx" values="306;206" dur="4s" repeatCount="indefinite"/>
    <animate attributeName="opacity" values="0.7;1;0.7" dur="4s" repeatCount="indefinite"/>
  </circle>
</svg>