<svg xmlns="http://www.w3.org/2000/svg" viewBox="0 0 512 512" width="100" height="100">
  <!-- Camada de entrada -->
  <circle cx="80" cy="120" r="15" fill="#6c5ce7"/>
  <circle cx="80" cy="200" r="15" fill="#6c5ce7"/>
  <circle cx="80" cy="280" r="15" fill="#6c5ce7"/>
  <circle cx="80" cy="360" r="15" fill="#6c5ce7"/>
  
  <!-- Camada oculta 1 -->
  <circle cx="200" cy="160" r="15" fill="#00cec9"/>
  <circle cx="200" cy="240" r="15" fill="#00cec9"/>
  <circle cx="200" cy="320" r="15" fill="#00cec9"/>
  
  <!-- Camada oculta 2 -->
  <circle cx="320" cy="180" r="15" fill="#00cec9"/>
  <circle cx="320" cy="300" r="15" fill="#00cec9"/>
  
  <!-- Camada de saída -->
  <circle cx="440" cy="240" r="15" fill="#fd79a8"/>
  
  <!-- Conexões da camada de entrada para a primeira camada oculta -->
  <line x1="95" y1="120" x2="185" y2="160" stroke="#dfe6e9" stroke-width="2"/>
  <line x1="95" y1="120" x2="185" y2="240" stroke="#dfe6e9" stroke-width="2"/>
  <line x1="95" y1="120" x2="185" y2="320" stroke="#dfe6e9" stroke-width="2"/>
  
  <line x1="95" y1="200" x2="185" y2="160" stroke="#dfe6e9" stroke-width="2"/>
  <line x1="95" y1="200" x2="185" y2="240" stroke="#dfe6e9" stroke-width="2"/>
  <line x1="95" y1="200" x2="185" y2="320" stroke="#dfe6e9" stroke-width="2"/>
  
  <line x1="95" y1="280" x2="185" y2="160" stroke="#dfe6e9" stroke-width="2"/>
  <line x1="95" y1="280" x2="185" y2="240" stroke="#dfe6e9" stroke-width="2"/>
  <line x1="95" y1="280" x2="185" y2="320" stroke="#dfe6e9" stroke-width="2"/>
  
  <line x1="95" y1="360" x2="185" y2="160" stroke="#dfe6e9" stroke-width="2"/>
  <line x1="95" y1="360" x2="185" y2="240" stroke="#dfe6e9" stroke-width="2"/>
  <line x1="95" y1="360" x2="185" y2="320" stroke="#dfe6e9" stroke-width="2"/>
  
  <!-- Conexões da primeira camada oculta para a segunda camada oculta -->
  <line x1="215" y1="160" x2="305" y2="180" stroke="#dfe6e9" stroke-width="2"/>
  <line x1="215" y1="160" x2="305" y2="300" stroke="#dfe6e9" stroke-width="2"/>
  
  <line x1="215" y1="240" x2="305" y2="180" stroke="#dfe6e9" stroke-width="2"/>
  <line x1="215" y1="240" x2="305" y2="300" stroke="#dfe6e9" stroke-width="2"/>
  
  <line x1="215" y1="320" x2="305" y2="180" stroke="#dfe6e9" stroke-width="2"/>
  <line x1="215" y1="320" x2="305" y2="300" stroke="#dfe6e9" stroke-width="2"/>
  
  <!-- Conexões da segunda camada oculta para a camada de saída -->
  <line x1="335" y1="180" x2="425" y2="240" stroke="#dfe6e9" stroke-width="2"/>
  <line x1="335" y1="300" x2="425" y2="240" stroke="#dfe6e9" stroke-width="2"/>
  
  <!-- Pulsos de dados -->
  <circle cx="140" cy="180" r="4" fill="#fd79a8">
    <animate attributeName="cx" values="95;185" dur="2s" repeatCount="indefinite"/>
    <animate attributeName="cy" values="120;240" dur="2s" repeatCount="indefinite"/>
  </circle>
  
  <circle cx="260" cy="220" r="4" fill="#fd79a8">
    <animate attributeName="cx" values="215;305" dur="1.5s" repeatCount="indefinite"/>
    <animate attributeName="cy" values="240;180" dur="1.5s" repeatCount="indefinite"/>
  </circle>
  
  <circle cx="380" cy="210" r="4" fill="#fd79a8">
    <animate attributeName="cx" values="335;425" dur="1.8s" repeatCount="indefinite"/>
    <animate attributeName="cy" values="180;240" dur="1.8s" repeatCount="indefinite"/>
  </circle>
</svg>