<svg xmlns="http://www.w3.org/2000/svg" viewBox="0 0 512 512" width="100" height="100">
  <!-- Cabeça do robô -->
  <rect x="176" y="80" width="160" height="120" rx="20" fill="none" stroke="#6c5ce7" stroke-width="8"/>
  
  <!-- Olhos -->
  <circle cx="216" cy="130" r="15" fill="#00cec9">
    <animate attributeName="opacity" values="0.7;1;0.7" dur="3s" repeatCount="indefinite"/>
  </circle>
  <circle cx="296" cy="130" r="15" fill="#00cec9">
    <animate attributeName="opacity" values="0.7;1;0.7" dur="3s" repeatCount="indefinite"/>
  </circle>
  
  <!-- Antenas -->
  <line x1="216" y1="80" x2="216" y2="50" stroke="#6c5ce7" stroke-width="6" stroke-linecap="round"/>
  <circle cx="216" cy="40" r="10" fill="#fd79a8"/>
  
  <line x1="296" y1="80" x2="296" y2="50" stroke="#6c5ce7" stroke-width="6" stroke-linecap="round"/>
  <circle cx="296" cy="40" r="10" fill="#fd79a8"/>
  
  <!-- Corpo -->
  <rect x="156" y="220" width="200" height="160" rx="10" fill="none" stroke="#6c5ce7" stroke-width="8"/>
  
  <!-- Pescoço -->
  <rect x="226" y="200" width="60" height="20" fill="none" stroke="#6c5ce7" stroke-width="6"/>
  
  <!-- Botões/Luzes -->
  <circle cx="196" cy="260" r="12" fill="#00cec9"/>
  <circle cx="256" cy="260" r="12" fill="#fd79a8"/>
  <circle cx="316" cy="260" r="12" fill="#00cec9"/>
  
  <rect x="196" cy="300" width="120" height="20" rx="5" fill="none" stroke="#00cec9" stroke-width="4"/>
  <rect x="196" cy="330" width="120" height="20" rx="5" fill="none" stroke="#00cec9" stroke-width="4"/>
  
  <!-- Braços -->
  <line x1="156" y1="240" x2="116" y2="280" stroke="#6c5ce7" stroke-width="8" stroke-linecap="round"/>
  <line x1="116" y1="280" x2="116" y2="340" stroke="#6c5ce7" stroke-width="8" stroke-linecap="round"/>
  <circle cx="116" cy="350" r="10" fill="#6c5ce7"/>
  
  <line x1="356" y1="240" x2="396" y2="280" stroke="#6c5ce7" stroke-width="8" stroke-linecap="round"/>
  <line x1="396" y1="280" x2="396" y2="340" stroke="#6c5ce7" stroke-width="8" stroke-linecap="round"/>
  <circle cx="396" cy="350" r="10" fill="#6c5ce7"/>
  
  <!-- Pernas -->
  <line x1="196" y1="380" x2="196" y2="440" stroke="#6c5ce7" stroke-width="8" stroke-linecap="round"/>
  <rect x="176" y="440" width="40" height="20" rx="5" fill="#6c5ce7"/>
  
  <line x1="316" y1="380" x2="316" y2="440" stroke="#6c5ce7" stroke-width="8" stroke-linecap="round"/>
  <rect x="296" y="440" width="40" height="20" rx="5" fill="#6c5ce7"/>
  
  <!-- Circuitos -->
  <path d="M226 160h60" stroke="#00cec9" stroke-width="4" stroke-dasharray="5,5"/>
  <path d="M226 340h60" stroke="#00cec9" stroke-width="4" stroke-dasharray="5,5"/>
</svg>